<?xml version="1.0" encoding="UTF-8" standalone="no"?>
<svg width="100%" height="100%" viewBox="0 0 456 448" version="1.1" xmlns="http://www.w3.org/2000/svg" xmlns:xlink="http://www.w3.org/1999/xlink" xmlns:sketch="http://www.bohemiancoding.com/sketch/ns">
    <!-- Generator: Sketch 3.3.1 (12002) - http://www.bohemiancoding.com/sketch -->
    <title>Imported Layers + SPB Copy 2 + FPROG Copy 2</title>
    <desc>Created with Sketch.</desc>
    <defs></defs>
    <g id="Page-1" stroke="none" stroke-width="1" fill="none" fill-rule="evenodd" sketch:type="MSPage">
        <g id="Imported-Layers-+-SPB-Copy-2-+-FPROG-Copy-2" sketch:type="MSLayerGroup">
            <g id="Imported-Layers" sketch:type="MSShapeGroup">
                <path d="M89.738,160.007 L67.878,136.052 C74.275,134.234 80.538,132.445 80.538,132.445 C81.585,130.901 80.479,128.814 78.613,128.814 L51,128.814 C47.963,128.814 45.5,131.276 45.5,134.314 C45.5,137.352 48,137.814 49,138.314 L54.5,139.814 C55.092,139.666 57.88,138.884 61.425,137.882 L85.306,164.052 L89.738,160.007" id="Fill-1" fill="#878A82"></path>
                <path d="M96.166,227.316 C100.428,234.141 102.9,242.192 102.9,250.813 C102.9,275.351 82.938,295.313 58.4,295.313 C33.862,295.313 13.9,275.351 13.9,250.813 C13.9,226.276 33.862,206.313 58.4,206.313 C63.822,206.313 69.02,207.292 73.829,209.075 C74.645,204.846 75.27,200.46 75.766,196 C70.284,194.259 64.451,193.313 58.4,193.313 C26.694,193.313 0.9,219.107 0.9,250.813 C0.9,282.519 26.694,308.313 58.4,308.313 C90.106,308.313 115.9,282.519 115.9,250.813 C115.9,236.206 110.416,222.862 101.41,212.709 C100.123,217.598 98.428,222.507 96.166,227.316" id="Fill-2" fill="#939490"></path>
                <path d="M351.485,123.302 C330.781,89.667 302.014,70.752 265.98,67.085 C239.06,64.345 218.104,71.57 217.895,71.644 L215.906,65.983 C216.809,65.665 238.356,58.244 266.587,61.116 C292.705,63.774 329.523,76.175 356.595,120.156 L351.485,123.302" id="Fill-3" fill="#8F908C"></path>
                <path d="M22.776,259.907 C22.723,259.639 17.718,232.952 40.496,218.453 L43.717,223.516 C24.363,235.835 28.616,258.51 28.661,258.737 L22.776,259.907" id="Fill-4" fill="#8F908C"></path>
                <path d="M133.911,80.056 L138.089,85.073 L215.781,177.275 C227.008,190.655 240.128,194.547 255.144,188.951 L269.337,183.661 L266.327,175.582 L260.352,177.808 C258.626,178.452 256.962,178.638 255.36,178.369 C253.758,178.099 252.171,177.563 250.602,176.762 C249.032,175.96 247.532,174.96 246.103,173.759 C244.673,172.558 243.319,171.33 242.042,170.072 L116.233,24.566 C111.555,19.145 107.268,14.619 103.373,10.987 C99.477,7.355 95.553,4.657 91.603,2.894 C87.653,1.131 83.53,0.298 79.234,0.397 C74.938,0.496 70.1,1.547 64.723,3.551 C59.041,5.669 49.2,9.337 49.158,9.224 L52.949,19.395 L63.906,15.311 C71.82,12.362 79.519,15.039 87.004,23.342 L117.846,60.763 L117.884,60.809 C105.887,76.797 86.226,103.865 82.652,163.162 C80.711,195.367 80.312,234.178 55.16,248.606 L58.619,256.352 C104.067,233.851 98.5,188.831 101.542,165.099 C109.142,105.81 127.119,87.563 133.911,80.056" id="Fill-5" fill="#636363"></path>
                <path d="M253.4,36.314 C218.441,36.314 186.446,49.242 161.94,70.566 L170.439,80.396 C192.664,61.046 221.687,49.313 253.4,49.313 C323.152,49.313 379.9,106.061 379.9,175.814 C379.9,245.565 323.152,302.313 253.4,302.313 C183.648,302.313 126.9,245.565 126.9,175.814 C126.9,149.864 134.759,125.718 148.214,105.62 L139.531,95.315 C123.395,118.073 113.9,145.855 113.9,175.814 C113.9,252.734 176.48,315.313 253.4,315.313 C330.321,315.313 392.9,252.734 392.9,175.814 C392.9,98.893 330.321,36.314 253.4,36.314" id="Fill-6" fill="#939490"></path>
            </g>
            <!-- <path d="M396.53,369.74612 C401.528,369.74612 405.982,366.82212 405.982,361.82412 C405.982,358.35612 403.534,356.72412 400.27,355.39812 C397.04,354.07212 396.088,353.52812 396.088,352.27012 C396.088,351.08012 397.346,349.85612 399.556,349.85612 C401.868,349.85612 403.466,350.74012 405.268,352.40612 L408.872,348.80212 C406.866,346.66012 404.044,345.26612 399.964,345.26612 C394.864,345.26612 390.512,348.25812 390.512,353.12012 C390.512,356.62212 393.266,358.28812 396.36,359.54612 C399.556,360.83812 400.406,361.51812 400.406,362.67412 C400.406,364.17012 398.876,365.15612 396.768,365.15612 C394.048,365.15612 391.974,364.06812 390.104,362.02812 L386.16,365.36012 C388.404,368.25012 391.94,369.74612 396.53,369.74612 L396.53,369.74612 Z M408.532,369.40612 L413.768,369.40612 L415.706,362.19812 L420.228,362.19812 C426.722,362.19812 431.788,358.83212 431.788,352.91612 C431.788,350.84212 431.176,349.24412 429.952,348.02012 C428.218,346.28612 425.872,345.60612 422.472,345.60612 L414.924,345.60612 L408.532,369.40612 Z M416.93,357.60812 L418.868,350.33212 L422.268,350.33212 C423.832,350.33212 424.818,350.67212 425.532,351.38612 C426.042,351.89612 426.314,352.57612 426.314,353.35812 C426.314,356.04412 423.968,357.60812 420.5,357.60812 L416.93,357.60812 Z M431.618,369.40612 L443.314,369.40612 C449.91,369.40612 453.548,366.41412 453.548,362.16412 C453.548,359.71612 452.188,358.25412 450.216,357.33612 C453.276,356.65612 455.316,354.61612 455.316,351.45412 C455.316,348.25812 452.868,345.60612 447.258,345.60612 L438.01,345.60612 L431.618,369.40612 Z M440.526,355.22812 L441.852,350.19612 L446.782,350.19612 C449.094,350.19612 450.08,351.11412 450.08,352.33812 C450.08,354.31012 448.482,355.22812 445.796,355.22812 L440.526,355.22812 Z M437.942,364.81612 L439.336,359.58012 L445.082,359.58012 C447.224,359.58012 448.346,360.43012 448.346,361.82412 C448.346,363.66012 446.714,364.81612 444.096,364.81612 L437.942,364.81612 Z" id="SPB-Copy-2" fill="#979797" sketch:type="MSShapeGroup"></path> -->
            <!-- <path d="M9.32,446.40612 L25.49,446.40612 L25.49,417.95112 L60.56,417.95112 L60.56,403.25112 L25.49,403.25112 L25.49,387.60612 L65.285,387.60612 L65.285,372.90612 L9.32,372.90612 L9.32,446.40612 Z M78.2,446.40612 L94.37,446.40612 L94.37,424.35612 L106.655,424.35612 C123.14,424.35612 136.37,415.53612 136.37,398.52612 C136.37,383.30112 125.765,372.90612 108.23,372.90612 L78.2,372.90612 L78.2,446.40612 Z M94.37,409.97112 L94.37,387.50112 L106.865,387.50112 C114.95,387.50112 119.99,391.38612 119.99,398.63112 C119.99,405.14112 115.265,409.97112 107.18,409.97112 L94.37,409.97112 Z M148.34,446.40612 L164.51,446.40612 L164.51,422.88612 L177.005,422.88612 L192.965,446.40612 L211.865,446.40612 L193.91,420.15612 C203.255,416.69112 209.66,409.23612 209.66,397.37112 C209.66,390.23112 207.455,384.45612 203.36,380.36112 C198.53,375.53112 191.285,372.90612 181.94,372.90612 L148.34,372.90612 L148.34,446.40612 Z M164.51,408.60612 L164.51,387.50112 L180.575,387.50112 C188.45,387.50112 193.28,391.07112 193.28,398.00112 C193.28,404.40612 188.765,408.60612 180.89,408.60612 L164.51,408.60612 Z M259.955,447.66612 C282.635,447.66612 299.12,430.55112 299.12,409.65612 C299.12,388.55112 282.845,371.64612 260.165,371.64612 C237.485,371.64612 221,388.76112 221,409.65612 C221,430.76112 237.275,447.66612 259.955,447.66612 L259.955,447.66612 Z M260.165,432.75612 C247.145,432.75612 237.905,422.25612 237.905,409.65612 C237.905,396.84612 246.935,386.55612 259.955,386.55612 C272.975,386.55612 282.215,397.05612 282.215,409.65612 C282.215,422.46612 273.185,432.75612 260.165,432.75612 L260.165,432.75612 Z M348.89,447.66612 C362.33,447.66612 372.725,442.41612 380.285,436.01112 L380.285,404.09112 L348.365,404.09112 L348.365,418.05612 L364.64,418.05612 L364.64,428.55612 C360.545,431.49612 355.295,432.96612 349.415,432.96612 C336.395,432.96612 327.155,423.09612 327.155,409.65612 C327.155,396.95112 336.5,386.55612 348.26,386.55612 C356.765,386.55612 361.805,389.28612 367.475,394.01112 L377.66,381.72612 C369.995,375.21612 362.015,371.64612 348.785,371.64612 C326.525,371.64612 310.25,388.76112 310.25,409.65612 C310.25,431.60112 326,447.66612 348.89,447.66612 L348.89,447.66612 Z" id="FPROG-Copy-2" fill="#979797" sketch:type="MSShapeGroup"></path> -->
        </g>
    </g>
</svg>
